<svg width="263" height="263" viewBox="0 0 263 263" fill="none" xmlns="http://www.w3.org/2000/svg">
<g clip-path="url(#clip0_52_46)">
<path fill-rule="evenodd" clip-rule="evenodd" d="M241.175 115.521C241.527 115.786 241.705 116.228 241.438 116.581C241.083 116.935 240.641 116.935 240.289 116.67C239.847 116.405 239.758 115.962 240.023 115.521C240.289 115.168 240.733 115.168 241.175 115.521ZM241.351 115.255C240.996 114.99 240.291 114.726 239.847 115.433C239.316 116.052 239.76 116.581 240.11 116.936C240.465 117.201 241.083 117.378 241.617 116.759C242.059 116.141 241.704 115.521 241.351 115.255ZM248.693 113.134L247.631 111.365H247.276V113.487H247.544V111.809L248.604 113.487H248.959V111.365H248.693V113.134ZM243.386 112.78L244.092 112.514L244.801 114.195L245.065 114.106L244.359 112.427L245.065 112.073L244.889 111.896L243.295 112.514L243.386 112.78ZM243.386 114.548L241.527 113.842L241.262 114.018L242.59 115.697L242.766 115.521L241.704 114.195L243.65 114.902L243.917 114.726L242.59 112.958L242.411 113.134L243.386 114.548ZM253.116 114.726L253.027 114.637L253.116 112.691L252.764 112.514L251.701 114.284L251.879 114.46L252.851 112.958V114.99L253.116 115.168L254.179 113.4L254 113.222L253.116 114.726ZM251.258 113.753L250.019 113.4L250.198 112.78L251.346 113.046L251.437 112.869L250.286 112.514L250.461 111.896L251.701 112.249V111.985L250.286 111.543L249.667 113.577L251.17 114.018L251.258 113.753ZM255.77 117.29L255.328 117.82L255.507 118.085L256.834 116.228L256.655 115.963L254.444 116.494L254.622 116.759L255.241 116.583L255.77 117.29ZM255.507 116.493L256.479 116.317L255.859 117.023L255.507 116.493ZM246.04 111.631H245.774L246.216 113.753L246.48 113.664L246.04 111.631ZM254.621 114.018L255.152 114.46L253.824 115.786L254 116.052L255.328 114.726L255.857 115.168L256.036 114.99L254.797 113.842L254.621 114.018ZM257.894 118.174L257.806 117.909L255.77 118.527L256.125 119.853L256.391 119.765L256.036 118.704L257.894 118.174ZM239.316 117.29C238.962 117.201 238.607 117.378 238.341 117.82C238.165 118.44 238.428 118.969 239.05 119.147C239.76 119.5 240.289 119.147 240.465 118.704C240.465 118.617 240.731 117.996 240.023 117.554L239.936 117.82C240.291 118.085 240.291 118.44 240.199 118.616C240.023 119.058 239.581 119.145 239.139 118.88C238.608 118.703 238.429 118.262 238.608 117.908C238.696 117.73 238.872 117.466 239.226 117.553L239.316 117.29ZM255.063 128.075C254.621 127.722 254.532 127.28 254.797 126.926C255.063 126.573 255.507 126.573 255.949 126.838C256.301 127.192 256.479 127.633 256.212 127.988C255.857 128.34 255.415 128.34 255.063 128.075ZM254.886 128.253C255.241 128.517 255.859 128.783 256.392 128.075C256.834 127.457 256.479 126.926 256.126 126.66C255.771 126.307 255.066 126.13 254.622 126.749C254.092 127.369 254.534 127.987 254.886 128.253ZM247.544 130.462L248.604 132.144H248.959V130.02H248.693V131.701H248.604L247.544 130.02H247.276V132.144H247.544V130.462ZM252.764 130.728L252.143 131.08L251.437 129.313L251.17 129.401L251.879 131.17L251.17 131.434L251.258 131.61L252.851 130.992L252.764 130.728ZM252.764 129.048L254.621 129.755L254.976 129.578L253.646 127.809L253.469 127.987L254.442 129.401L252.585 128.695L252.322 128.871L253.558 130.55L253.824 130.374L252.764 129.048ZM243.12 128.871V130.904L243.386 131.08L244.535 129.224L244.271 129.137L243.386 130.55V128.517L243.12 128.34L241.969 130.197L242.235 130.286L243.12 128.871ZM244.977 129.755L246.129 130.108L245.95 130.815L244.889 130.462L244.801 130.728L245.862 131.08L245.685 131.701L244.535 131.347L244.447 131.523L245.95 131.965L246.48 129.932L244.977 129.49V129.755ZM240.465 126.218L240.82 125.776L240.733 125.512L239.318 127.28L239.494 127.545L241.705 127.102L241.527 126.838L240.909 126.926L240.465 126.218ZM240.641 127.014L239.668 127.278L240.289 126.483L240.641 127.014ZM250.198 131.965L250.461 131.877L250.019 129.844H249.756L250.198 131.965ZM241.527 129.578L241.083 129.048L242.411 127.722L242.148 127.545L240.82 128.871L240.378 128.34L240.199 128.517L241.351 129.755L241.527 129.578ZM238.342 125.334L238.43 125.688L240.465 125.069L240.023 123.743L239.847 123.831L240.11 124.803L238.342 125.334ZM256.833 126.218C257.185 126.306 257.627 126.218 257.806 125.688C258.069 125.157 257.806 124.627 257.185 124.361C256.391 124.008 255.949 124.361 255.77 124.803C255.683 124.981 255.507 125.599 256.212 125.954L256.299 125.776C255.857 125.423 255.947 125.157 255.947 124.981C256.211 124.45 256.565 124.45 257.096 124.627C257.287 124.698 257.447 124.835 257.544 125.014C257.642 125.193 257.671 125.401 257.627 125.6C257.54 125.776 257.364 126.042 256.92 125.954L256.833 126.218Z" fill="#E4B036"/>
<path d="M240.378 121.798C240.416 119.781 241.243 117.861 242.683 116.448C244.122 115.036 246.058 114.244 248.075 114.244C250.091 114.244 252.027 115.036 253.467 116.448C254.906 117.861 255.733 119.781 255.771 121.798C255.771 126.042 252.323 129.401 248.075 129.401C243.829 129.401 240.378 126.042 240.378 121.798V121.798Z" stroke="#E4B036" stroke-width="0.14" stroke-miterlimit="2.613" stroke-linecap="square"/>
<path fill-rule="evenodd" clip-rule="evenodd" d="M238.43 121.798H238.963V122.328H238.43V121.798ZM252.409 127.28H243.738L244.092 127.722H252.143L252.409 127.28ZM257.097 121.798H257.627V122.328H257.097V121.798Z" fill="#E4B036"/>
<path fill-rule="evenodd" clip-rule="evenodd" d="M242.235 121.71L242.148 121.975L241.351 122.24L241.527 121.18V121.268C241.527 121.268 241.882 121.002 242.148 120.649C242.678 120.56 243.386 120.383 243.651 120.207L244.093 120.294L244.272 120.471L244.803 120.825C244.803 120.825 245.066 120.029 245.245 119.852C245.421 119.587 245.597 119.499 245.776 119.233C245.952 119.057 246.218 118.879 246.394 118.702C246.66 118.437 246.66 118.261 246.66 118.261L246.747 117.729L246.392 117.642L246.305 117.553L245.687 117.642L245.595 117.732L245.419 117.82L245.243 117.909L245.065 117.82L244.977 117.644L245.065 117.556L245.155 117.468L245.685 117.381L245.773 117.204L245.595 117.112L244.977 117.288L244.801 117.2V117.022L244.889 116.935L244.976 116.846V116.67L245.063 116.582H245.242L246.391 116.228L246.478 116.141L247.454 115.876V115.168L248.161 116.052C248.339 116.052 248.427 116.052 248.427 116.141C248.603 116.405 248.339 116.405 248.339 116.583C248.427 116.672 248.691 116.494 248.781 116.759C248.869 117.024 248.515 116.936 248.603 117.114C248.69 117.29 248.869 117.025 248.957 117.29C249.045 117.554 248.691 117.466 248.691 117.643C248.781 117.819 248.957 117.73 248.957 117.996C248.957 118.174 248.691 118.085 248.691 118.262C248.691 118.35 248.87 118.262 248.87 118.616C248.87 118.881 248.604 118.703 248.604 118.881C248.604 118.968 248.783 119.057 248.691 119.145C248.515 119.411 248.428 119.234 248.428 119.323C248.341 119.499 248.604 119.499 248.604 119.765C248.517 119.852 248.249 119.852 248.249 119.852C248.249 119.852 248.249 120.205 248.428 120.383L248.959 120.471L249.756 120.56C249.756 120.56 250.728 120.383 251.346 120.56C251.789 120.649 252.231 121.268 252.322 121.268C252.419 121.311 252.525 121.334 252.631 121.334C252.738 121.334 252.843 121.311 252.94 121.268C253.116 121.091 253.558 120.826 253.913 120.826C254.179 120.738 254.444 120.915 254.71 121.357C254.886 121.888 254.179 123.567 254.268 124.363C254.268 124.627 254.534 124.805 254.534 124.805C253.913 125.158 253.027 124.451 253.027 123.832C253.027 123.125 253.115 123.39 253.382 122.683C253.558 121.888 253.295 121.888 253.203 121.799C253.116 121.623 252.94 121.712 252.94 121.712L252.498 121.888C252.764 122.683 252.498 122.949 252.322 123.125C251.967 123.656 252.143 123.921 252.143 124.009C252.231 124.274 252.409 124.54 252.498 124.718C252.674 124.805 252.853 124.982 252.853 124.982V125.247C252.587 125.424 252.232 125.866 251.969 126.307C251.881 126.484 251.79 126.66 251.79 126.66V126.925C251.79 126.925 251.259 126.836 251.172 127.014C251.172 127.014 251.084 127.191 251.438 127.191L251.348 127.367H250.375L250.554 126.925L250.906 126.572C251.084 126.483 251.615 125.952 251.703 125.776C251.881 125.512 251.969 125.512 251.969 125.246C251.881 124.981 251.348 124.715 251.172 124.626C250.996 124.45 250.73 124.095 250.73 123.742C250.642 123.919 250.554 123.829 250.554 124.184C250.554 124.537 250.906 125.068 251.084 125.244C251.172 125.331 251.172 125.331 251.172 125.422V125.509L251.084 125.598C251.084 125.598 250.2 126.304 250.022 126.482C249.846 126.57 249.934 126.746 249.934 126.746L249.847 126.834C249.847 126.834 249.316 126.746 249.229 126.922C249.229 126.922 249.139 127.188 249.492 127.188L249.405 127.453H248.432L248.695 126.745C248.884 126.646 249.039 126.492 249.137 126.303C249.137 126.303 249.671 126.126 249.847 125.95C250.023 125.861 250.289 125.684 250.202 125.419C250.202 125.153 249.671 124.711 249.671 124.711C249.671 124.622 249.316 124.269 249.316 124.091C249.229 123.915 249.229 123.738 249.229 123.738L249.405 123.207C249.405 123.207 247.901 123.383 247.724 123.383C247.548 123.294 247.282 123.294 247.282 123.294L246.046 122.852L245.956 123.028L245.78 123.117L244.01 122.146H243.655C243.655 122.146 243.124 122.852 243.124 123.028C243.037 123.117 243.124 123.382 243.124 123.382V123.47C243.124 123.47 242.77 123.293 242.77 123.47C242.77 123.648 243.036 123.735 243.036 123.735L243.123 123.913L242.414 124.531L242.238 123.648C242.414 123.117 242.325 123.293 242.414 122.764C242.414 122.764 243.034 122.057 243.21 121.615L243.92 121.439L244.007 121.526L244.717 121.791L243.92 120.995L243.389 120.819L242.68 121.261L242.592 121.437L242.414 121.525C242.414 121.525 242.15 121.171 241.972 121.437C241.88 121.622 242.235 121.71 242.235 121.71Z" fill="#E4B036"/>
<path d="M237.105 121.797C237.105 115.697 241.967 110.747 248.073 110.747C254.179 110.747 259.132 115.697 259.132 121.797C259.132 127.809 254.178 132.762 248.073 132.762C241.969 132.762 237.105 127.809 237.105 121.797Z" stroke="#E4B036" stroke-width="0.14" stroke-miterlimit="2.613" stroke-linecap="square"/>
<path fill-rule="evenodd" clip-rule="evenodd" d="M141.558 137.004V132.849H154.918C154.918 132.762 155.005 132.673 155.005 132.583V131.877C155.005 124.539 150.051 119.676 143.77 119.676V121.62C144.922 121.62 145.982 122.682 145.982 123.831V130.815H141.558V123.831C141.558 122.682 142.531 121.62 143.77 121.62V119.676C137.488 119.676 132.536 124.537 132.536 131.877C132.536 139.124 137.49 144.785 143.77 144.785C148.903 144.785 154.121 141.159 154.829 135.589H152.351C152.351 135.589 151.467 142.31 144.922 142.222C142.973 142.222 141.471 140.719 141.558 137.004ZM102.546 120.207H91.7517V122.417H93.9634V141.601H91.7517V143.989H104.756V141.601H102.546V120.207ZM92.8132 114.902C92.8132 112.869 95.025 110.747 97.7674 110.747C100.599 110.747 102.81 112.869 102.81 114.902C102.81 116.935 100.599 119.145 97.7674 119.145C95.025 119.145 92.8132 116.936 92.8132 114.902ZM48.0494 120.207V117.378L39.4672 109.598V112.249C36.0166 110.659 33.8062 110.216 30.0895 110.216C18.3228 110.394 8.59174 119.5 8.50442 131.17C8.32705 143.017 18.2355 151.771 30.0895 152.565C35.9279 152.92 42.5644 151.15 47.872 145.936V143.017C43.9793 146.908 40.8821 148.765 35.6632 148.765C26.6403 148.765 20.1811 140.808 20.0924 131.791C20.0037 122.685 26.5502 114.461 35.6632 114.374C40.9708 114.372 44.6861 116.052 48.0494 120.207ZM73.7919 125.157C73.7919 121.178 70.4299 119.411 66.2726 119.411C63.7961 119.411 61.7604 120.207 60.4342 121.798V120.207H49.6403V122.417H51.8534V141.601H49.6403V143.989H62.6459V141.601H60.4342V124.981C60.4342 123.655 61.4957 122.593 62.8219 122.593C64.1495 122.593 65.211 123.655 65.211 124.981V143.989H76.005V141.601H73.7919V125.157ZM77.2425 120.826V122.417H79.4556V141.601H77.2425V143.989H90.4241V141.601H88.3011V122.417H90.4241V120.207H88.3011V110.394L77.2425 120.826ZM130.235 125.157C130.235 121.178 126.873 119.411 122.716 119.411C120.149 119.411 118.204 120.207 116.878 121.798V120.207H106.084V122.417H108.295V141.601H106.084V143.989H119.089V141.601H116.878V124.981C116.878 123.655 117.939 122.593 119.265 122.593C120.591 122.593 121.653 123.655 121.653 124.981V143.989H132.447V141.601H130.235V125.157Z" fill="#E4B036"/>
<path fill-rule="evenodd" clip-rule="evenodd" d="M37.4328 144.961C43.7146 144.961 48.6675 139.037 48.6675 131.789C48.6675 124.539 43.9779 118.969 37.6975 118.969V121.357C38.8477 121.357 39.8206 122.418 39.8206 123.567V140.366C39.8206 141.602 38.8477 142.575 37.6975 142.575C37.4065 142.578 37.1178 142.523 36.8483 142.413C36.5789 142.303 36.334 142.14 36.1281 141.935C35.9222 141.729 35.7593 141.484 35.649 141.215C35.5387 140.946 35.4832 140.657 35.4858 140.366V123.566C35.4858 122.417 36.4586 121.356 37.6975 121.356V118.968C31.3284 118.968 26.1968 124.537 26.1968 131.788C26.1982 139.037 31.1524 144.961 37.4328 144.961ZM179.776 125.157C179.776 121.178 176.415 119.411 172.258 119.411C169.691 119.411 167.746 120.207 166.331 121.798V120.207H155.538V122.417H157.747V141.601H155.538V143.989H168.54V141.601H166.331V124.981C166.331 123.655 167.48 122.593 168.719 122.593C170.046 122.593 171.194 123.655 171.194 124.981V143.989H181.989V141.601H179.775V125.157H179.776ZM221.976 111.543V113.929H223.922V141.689H221.799V144.077H234.538V141.689H232.326V111.543H221.976ZM183.226 120.826V122.417H185.438V141.601H183.226V143.989H196.41V141.601H194.198V122.417H196.41V120.207H194.198V110.394L183.226 120.826ZM198.71 125.157C200.301 124.097 201.185 123.389 203.046 122.593C204.371 122.062 205.255 121.885 206.673 121.885C207.733 121.885 208.53 121.885 209.326 122.504C210.121 123.124 210.033 123.477 210.033 125.068V127.631C210.033 127.631 208.973 126.659 207.822 126.127V128.515C208.973 128.515 209.857 129.575 209.857 130.725V139.744C209.857 140.893 208.973 141.865 207.822 141.865C207.542 141.869 207.264 141.817 207.005 141.712C206.746 141.607 206.51 141.45 206.313 141.253C206.115 141.055 205.959 140.819 205.853 140.56C205.748 140.301 205.696 140.024 205.7 139.744V130.725C205.7 129.575 206.673 128.515 207.822 128.515V126.127C207.203 125.862 206.318 125.685 205.521 125.685C200.48 125.685 197.028 130.017 197.028 135.41C197.028 140.273 199.949 144.871 204.812 144.871C205.963 144.871 207.115 144.605 207.909 144.341C209.415 143.81 210.033 143.28 210.033 143.28V144.074H220.384V141.687H218.262V127.191C217.996 122.593 216.932 122.24 214.899 120.825C213.926 120.029 211.802 119.587 210.917 119.499C210.033 119.411 209.06 119.323 208.175 119.323C204.636 119.323 201.364 120.294 198.709 122.152V125.157H198.71Z" fill="#E4B036"/>
</g>
<defs>
<clipPath id="clip0_52_46">
<rect width="263" height="263" fill="white"/>
</clipPath>
</defs>
</svg>
