<svg width="52" height="52" viewBox="0 0 52 52" fill="none" xmlns="http://www.w3.org/2000/svg">
<circle cx="26" cy="26" r="26" fill="white"/>
<g clip-path="url(#clip0_234_62)">
<path d="M26.838 16.419C24.9751 16.419 23.1541 16.9714 21.6051 18.0064C20.0562 19.0414 18.8489 20.5124 18.136 22.2335C17.4231 23.9546 17.2366 25.8484 17.6 27.6756C17.9634 29.5027 18.8605 31.181 20.1778 32.4982C21.4951 33.8155 23.1734 34.7126 25.0005 35.076C26.8276 35.4395 28.7214 35.2529 30.4425 34.54C32.1636 33.8271 33.6347 32.6199 34.6696 31.0709C35.7046 29.522 36.257 27.7009 36.257 25.838C36.257 23.3399 35.2647 20.9442 33.4983 19.1778C31.7319 17.4114 29.3361 16.419 26.838 16.419ZM26.838 31.725V19.951C28.3994 19.951 29.8967 20.5712 31.0008 21.6753C32.1048 22.7793 32.725 24.2767 32.725 25.838C32.725 27.3993 32.1048 28.8967 31.0008 30.0007C29.8967 31.1048 28.3994 31.725 26.838 31.725ZM26.838 37.612C27.4626 37.612 28.0616 37.8601 28.5033 38.3018C28.9449 38.7434 29.193 39.3424 29.193 39.967V42.322C29.193 42.9466 28.9449 43.5456 28.5033 43.9872C28.0616 44.4289 27.4626 44.677 26.838 44.677C26.2134 44.677 25.6144 44.4289 25.1728 43.9872C24.7311 43.5456 24.483 42.9466 24.483 42.322V39.967C24.483 39.3424 24.7311 38.7434 25.1728 38.3018C25.6144 37.8601 26.2134 37.612 26.838 37.612ZM26.838 14.064C26.2134 14.064 25.6144 13.8159 25.1728 13.3742C24.7311 12.9326 24.483 12.3336 24.483 11.709V9.355C24.483 8.73042 24.7311 8.13141 25.1728 7.68976C25.6144 7.24812 26.2134 7 26.838 7C27.4626 7 28.0616 7.24812 28.5033 7.68976C28.9449 8.13141 29.193 8.73042 29.193 9.355V11.71C29.1928 12.3344 28.9445 12.9332 28.5029 13.3746C28.0613 13.816 27.4624 14.064 26.838 14.064ZM43.321 23.483C43.9456 23.483 44.5446 23.7311 44.9863 24.1728C45.4279 24.6144 45.676 25.2134 45.676 25.838C45.676 26.4626 45.4279 27.0616 44.9863 27.5032C44.5446 27.9449 43.9456 28.193 43.321 28.193H40.966C40.3414 28.193 39.7424 27.9449 39.3008 27.5032C38.8591 27.0616 38.611 26.4626 38.611 25.838C38.611 25.2134 38.8591 24.6144 39.3008 24.1728C39.7424 23.7311 40.3414 23.483 40.966 23.483H43.321ZM15.064 25.838C15.064 26.4626 14.8159 27.0616 14.3743 27.5032C13.9326 27.9449 13.3336 28.193 12.709 28.193H10.354C10.0448 28.193 9.73853 28.1321 9.4528 28.0137C9.16708 27.8954 8.90747 27.7219 8.68879 27.5032C8.4701 27.2846 8.29664 27.0249 8.17829 26.7392C8.05994 26.4535 7.99902 26.1473 7.99902 25.838C7.99902 25.5287 8.05994 25.2225 8.17829 24.9368C8.29664 24.6511 8.4701 24.3914 8.68879 24.1728C8.90747 23.9541 9.16708 23.7806 9.4528 23.6623C9.73853 23.5439 10.0448 23.483 10.354 23.483H12.709C13.3336 23.483 13.9326 23.7311 14.3743 24.1728C14.8159 24.6144 15.064 25.2134 15.064 25.838ZM38.493 34.163L40.158 35.828C40.3828 36.0453 40.562 36.3051 40.6853 36.5924C40.8085 36.8797 40.8734 37.1886 40.876 37.5012C40.8786 37.8138 40.819 38.1238 40.7006 38.4131C40.5822 38.7024 40.4074 38.9653 40.1863 39.1863C39.9653 39.4073 39.7024 39.5822 39.4131 39.7006C39.1238 39.819 38.8138 39.8786 38.5012 39.876C38.1887 39.8733 37.8797 39.8085 37.5924 39.6852C37.3052 39.562 37.0453 39.3827 36.828 39.158L35.163 37.493C34.7337 37.0489 34.496 36.4539 34.5012 35.8362C34.5064 35.2185 34.7541 34.6276 35.1908 34.1908C35.6276 33.754 36.2186 33.5064 36.8362 33.5011C37.4539 33.4959 38.0489 33.7336 38.493 34.163ZM15.182 17.513L13.517 15.848C13.0877 15.4039 12.85 14.8089 12.8552 14.1912C12.8604 13.5735 13.1081 12.9826 13.5448 12.5458C13.9816 12.109 14.5726 11.8614 15.1902 11.8561C15.8079 11.8509 16.4029 12.0886 16.847 12.518L18.512 14.183C18.7368 14.4003 18.916 14.6601 19.0393 14.9474C19.1625 15.2347 19.2274 15.5436 19.23 15.8562C19.2326 16.1688 19.173 16.4788 19.0546 16.7681C18.9362 17.0574 18.7614 17.3203 18.5403 17.5413C18.3193 17.7623 18.0564 17.9372 17.7671 18.0556C17.4778 18.174 17.1678 18.2336 16.8552 18.231C16.5427 18.2283 16.2337 18.1635 15.9464 18.0402C15.6592 17.917 15.3993 17.7377 15.182 17.513ZM38.493 17.513C38.0489 17.9424 37.4539 18.1801 36.8362 18.1749C36.2186 18.1696 35.6276 17.922 35.1908 17.4852C34.7541 17.0484 34.5064 16.4575 34.5012 15.8398C34.496 15.2221 34.7337 14.6271 35.163 14.183L36.829 12.518C37.2731 12.0886 37.8681 11.8509 38.4858 11.8561C39.1035 11.8614 39.6944 12.109 40.1312 12.5458C40.568 12.9826 40.8157 13.5735 40.8209 14.1912C40.8261 14.8089 40.5884 15.4039 40.159 15.848L38.493 17.513ZM15.182 34.163C15.6261 33.7336 16.2211 33.4959 16.8388 33.5011C17.4565 33.5064 18.0474 33.754 18.4842 34.1908C18.921 34.6276 19.1687 35.2185 19.1739 35.8362C19.1791 36.4539 18.9414 37.0489 18.512 37.493L16.847 39.158C16.4029 39.5874 15.8079 39.8251 15.1902 39.8199C14.5726 39.8146 13.9816 39.567 13.5448 39.1302C13.1081 38.6934 12.8604 38.1025 12.8552 37.4848C12.85 36.8671 13.0877 36.2721 13.517 35.828L15.182 34.163Z" fill="black"/>
</g>
<defs>
<clipPath id="clip0_234_62">
<rect width="37.676" height="37.676" fill="white" transform="translate(8 7)"/>
</clipPath>
</defs>
</svg>
